<?xml version="1.0" encoding="UTF-8"?>
<svg width="25px" height="25px" viewBox="0 0 25 25" version="1.1" xmlns="http://www.w3.org/2000/svg" xmlns:xlink="http://www.w3.org/1999/xlink">
    <!-- Generator: Sketch 40.3 (33839) - http://www.bohemiancoding.com/sketch -->
    <title>Page 1</title>
    <desc>Created with Sketch.</desc>
    <defs></defs>
    <g id="Page-1" stroke="none" stroke-width="1" fill="none" fill-rule="evenodd">
        <g id="Artboard" transform="translate(-285.000000, -27.000000)" fill="#B6A05D">
            <g id="Group-2" transform="translate(285.000000, 27.000000)">
                <path d="M15.4609375,8.63802083 L13.5820313,8.63802083 C13.359375,8.63802083 13.1119792,8.93098958 13.1119792,9.3203125 L13.1119792,10.6770833 L15.4622396,10.6770833 L15.1067708,12.6119792 L13.1119792,12.6119792 L13.1119792,18.4205729 L10.8945313,18.4205729 L10.8945313,12.6119792 L8.8828125,12.6119792 L8.8828125,10.6770833 L10.8945313,10.6770833 L10.8945313,9.5390625 C10.8945313,7.90625 12.0273438,6.57942708 13.5820313,6.57942708 L15.4609375,6.57942708 L15.4609375,8.63802083 Z M12.5,0 C5.59635417,0 0,5.59635417 0,12.5 C0,19.4036458 5.59635417,25 12.5,25 C19.4036458,25 25,19.4036458 25,12.5 C25,5.59635417 19.4036458,0 12.5,0 L12.5,0 Z" id="Page-1"></path>
            </g>
        </g>
    </g>
</svg>