<?xml version="1.0" encoding="UTF-8"?>
<svg width="21px" height="66px" viewBox="0 0 21 66" version="1.1" xmlns="http://www.w3.org/2000/svg" xmlns:xlink="http://www.w3.org/1999/xlink">
    <!-- Generator: Sketch 40.3 (33839) - http://www.bohemiancoding.com/sketch -->
    <title>Fill 1</title>
    <desc>Created with Sketch.</desc>
    <defs></defs>
    <g id="Page-1" stroke="none" stroke-width="1" fill="none" fill-rule="evenodd">
        <g id="Artboard" transform="translate(-178.000000, -235.000000)" fill="#B6A05D">
            <g id="header">
                <g id="Group-3" transform="translate(14.000000, 235.000000)">
                    <path d="M177.162115,17.6946766 C177.163793,19.9352623 177.163793,22.1771142 177.163793,27.2482911 L177.163793,29.0765483 L183.171962,23.0325799 L183.172382,22.7194296 C183.173221,22.1176072 183.169445,20.6776225 183.156439,19.26296 C183.139238,17.4794386 182.95716,16.4315248 182.527555,15.6452729 C182.151232,14.9560891 181.4397,13.9706366 179.610105,13.3705023 C178.782361,13.0991335 177.815751,12.9066854 176.790826,12.7028423 L174.45653,12.2432458 L175.838061,13.8883397 C176.702724,14.918528 177.160437,16.2344342 177.162115,17.6946766 Z M184.995683,39.8907824 L184.995683,30.3494069 L183.16483,32.1915913 L183.16483,32.1865268 L177.162535,38.2245868 L177.162115,45.4430796 C177.162115,48.5015698 177.162115,48.9915529 177.161276,50.0605685 C177.160017,51.4997091 176.674615,52.8730121 175.794429,53.9276785 L175.604799,54.1543115 L171.481184,58.3029191 L171.481184,66 L175.890922,62.1392205 L175.890922,55.2646865 L176.497151,55.1612878 C177.315665,55.0211721 178.132501,54.8422291 178.926262,54.6295233 C181.414108,53.9618634 182.20745,52.8548646 182.620692,51.9652141 C183.0289,51.0865364 183.131267,49.924251 183.159795,48.4488154 C183.178255,47.4794002 183.17364,46.4952137 183.169025,45.4397033 C183.166928,44.9530965 183.16483,44.4588931 183.16483,43.9554049 L183.16483,41.7325447 L184.995683,39.8907824 Z M171.261767,54.1661285 C170.397104,53.1507114 169.940649,51.8786968 169.942328,50.4864021 C169.943586,48.6682738 169.944006,46.8493014 169.944006,45.030329 L169.944425,43.1767497 L169.900794,43.1767497 L169.900794,35.2741375 L171.423288,35.2741375 L175.456703,31.2171116 L169.900794,31.2171116 L169.902052,17.7892125 C169.903311,16.2838124 170.405075,14.8742143 171.314628,13.8199699 L172.036649,12.9834959 L175.890922,9.10667903 L175.890922,0 L171.480765,3.86077949 L171.480765,12.4209227 L170.612745,12.5783419 C170.064412,12.6775202 169.47958,12.7876715 168.915305,12.9189244 C167.692358,13.2033763 166.677921,13.6363846 165.813678,14.2428494 C164.751414,14.9885859 164.24,15.8887873 164.156093,17.1616459 C164.048273,18.7991431 164.039043,20.4636506 164.029393,22.2408415 C164.026457,22.8291588 164.0231,23.4170541 164.016388,24.0045273 C164.007997,24.6835822 164.013032,25.3685456 164.018066,26.0936023 C164.025618,27.1588196 164.031911,28.6979825 164.002124,29.7606676 C163.973176,30.7879017 164.226995,31.615513 165.581255,32.5676248 C165.655933,32.6195351 165.729352,32.6693353 165.808644,32.7229338 L166.242444,33.0175145 L166.02848,33.1584743 C164.915872,33.8881734 164.531577,34.4545449 164.320551,34.8660294 C164.136795,35.2251814 164.054985,35.5518368 164.055405,35.9257601 C164.058341,37.2864021 164.057922,38.227119 164.057922,39.4999776 L164.057502,39.9633724 C164.056663,43.1459411 164.055405,46.4369729 164.08687,49.6921316 C164.112881,52.4471784 165.052641,53.2085302 165.504061,53.5744349 C166.461861,54.3505579 167.687324,54.8743038 169.250513,55.1769032 C169.65998,55.2558238 170.092941,55.3313681 170.573309,55.4069124 L172.587919,55.723861 L171.261767,54.1661285 Z" id="Fill-1"></path>
                </g>
            </g>
        </g>
    </g>
</svg>