<?xml version="1.0" encoding="UTF-8"?>
<svg width="26px" height="25px" viewBox="0 0 26 25" version="1.1" xmlns="http://www.w3.org/2000/svg" xmlns:xlink="http://www.w3.org/1999/xlink">
    <!-- Generator: Sketch 40.3 (33839) - http://www.bohemiancoding.com/sketch -->
    <title>Page 1</title>
    <desc>Created with Sketch.</desc>
    <defs></defs>
    <g id="Page-1" stroke="none" stroke-width="1" fill="none" fill-rule="evenodd">
        <g id="Artboard" transform="translate(-324.000000, -27.000000)" fill="#B6A05D">
            <g id="Group-2" transform="translate(285.000000, 27.000000)">
                <path d="M58.2029688,17.5638021 C58.2029688,18.359375 57.5519271,19.0104167 56.7563542,19.0104167 L46.62875,19.0104167 C45.8331771,19.0104167 45.1821354,18.359375 45.1821354,17.5638021 L45.1821354,7.43619792 C45.1821354,6.640625 45.8331771,5.98958333 46.62875,5.98958333 L56.7563542,5.98958333 C57.5519271,5.98958333 58.2029688,6.640625 58.2029688,7.43619792 L58.2029688,17.5638021 Z M51.6925521,0 C44.7889063,0 39.1925521,5.59635417 39.1925521,12.5 C39.1925521,19.4036458 44.7889063,25 51.6925521,25 C58.5961979,25 64.1925521,19.4036458 64.1925521,12.5 C64.1925521,5.59635417 58.5961979,0 51.6925521,0 L51.6925521,0 Z M54.8175521,9.765625 L56.37875,9.765625 C56.5948958,9.765625 56.7706771,9.58984375 56.7706771,9.375 L56.7706771,7.81380208 C56.7706771,7.59765625 56.5948958,7.421875 56.37875,7.421875 L54.8175521,7.421875 C54.6014063,7.421875 54.425625,7.59765625 54.425625,7.81380208 L54.425625,9.375 C54.4269271,9.58984375 54.6027083,9.765625 54.8175521,9.765625 L54.8175521,9.765625 Z M51.6925521,15.1041667 C53.1300521,15.1041667 54.2967188,13.9375 54.2967188,12.5 C54.2967188,11.0625 53.1300521,9.89583333 51.6925521,9.89583333 C50.2550521,9.89583333 49.0883854,11.0625 49.0883854,12.5 C49.0883854,13.9375 50.2550521,15.1041667 51.6925521,15.1041667 L51.6925521,15.1041667 Z M55.5988021,12.5 C55.5988021,14.6575521 53.8501042,16.40625 51.6925521,16.40625 C49.535,16.40625 47.7863021,14.6575521 47.7863021,12.5 C47.7863021,12.2773437 47.8097396,12.0598958 47.8501042,11.8489583 L46.4842188,11.8489583 L46.4842188,17.0533854 C46.4842188,17.4153646 46.7771875,17.7083333 47.1391667,17.7083333 L56.2472396,17.7083333 C56.6079167,17.7083333 56.9008854,17.4153646 56.9008854,17.0533854 L56.9008854,11.8489583 L55.535,11.8489583 C55.5753646,12.0598958 55.5988021,12.2773437 55.5988021,12.5 L55.5988021,12.5 Z" id="Page-1"></path>
            </g>
        </g>
    </g>
</svg>